<?xml version="1.0" encoding="UTF-8"?>
<svg xmlns="http://www.w3.org/2000/svg" version="1.2" baseProfile="tiny-ps" width="256" height="256" viewBox="0 0 256 256">
  <rect x="0" y="0" width="256" height="256" fill="#FFFFFF"/>
  <g transform="translate(128,128) scale(0.9) translate(-128,-128)">
  <defs
     id="defs1" />
  
  <g
     id="g1"
    
    >
    <g
       id="group-R5">
      <path
         id="path2"
         d="m 274.465,641.926 c 10.762,-10.957 21.402,-23.543 31.98,-37.735 5.371,-7.293 10.633,-14.894 15.84,-22.746 3.059,6.325 6.145,12.578 9.192,18.715 3.093,6.328 6.152,12.469 9.238,18.43 -1.938,2.117 -3.945,4.234 -6.059,6.328 -11.902,11.895 -25.828,22.762 -41.758,32.555 -8.257,4.789 -17.085,8.816 -26.503,12.078 -9.586,3.469 -19.665,5.586 -30.235,6.347 h -2.305 c 13.43,-8.636 26.973,-19.957 40.61,-33.972"
         style="fill:#346cbe;fill-opacity:1;fill-rule:evenodd;stroke:none"
         transform="matrix(0.13333333,0,0,-0.13333333,0,123.25333)" />
      <path
         id="path3"
         d="m 648.563,761.441 c 19.96,-13.253 40.121,-30.531 60.492,-51.839 14.785,-15.75 29.644,-33.497 44.629,-53.282 10.933,-14.601 21.699,-30.058 32.261,-46.375 2.09,4.239 4.336,8.438 6.621,12.672 7.872,15.16 15.84,29.77 23.911,43.785 -7.688,8.825 -15.852,17.551 -24.497,26.192 -16.687,17.277 -36.375,33.406 -59.031,48.398 -11.511,7.289 -24.187,13.637 -38.008,19.008 -3.464,1.328 -6.906,2.582 -10.371,3.734 -3.64,0.973 -7.39,1.914 -11.218,2.883 -7.5,1.735 -15.176,2.879 -23.047,3.461 l -6.059,0.274 h -10.074 v -0.274 c 4.781,-2.695 9.605,-5.574 14.391,-8.637"
         style="fill:#346cbe;fill-opacity:1;fill-rule:evenodd;stroke:none"
         transform="matrix(0.13333333,0,0,-0.13333333,0,123.25333)" />
      <path
         id="path4"
         d="m 73.4492,532.758 v -40.594 h 20.4375 v 74.004 c -1.5351,-2.109 -3.0547,-4.32 -4.6094,-6.617 -5.3789,-8.25 -10.6445,-17.188 -15.8281,-26.793"
         style="fill:#26275d;fill-opacity:1;fill-rule:evenodd;stroke:none"
         transform="matrix(0.13333333,0,0,-0.13333333,0,123.25333)" />
      <path
         id="path5"
         d="m 143.137,613.121 c -0.766,-0.375 -1.438,-0.676 -2.016,-0.875 -0.391,-0.176 -0.777,-0.293 -1.16,-0.293 l -3.164,-1.707 c -4.59,-2.707 -8.645,-5.586 -12.078,-8.644 l -0.586,-0.582 c -0.188,-0.207 -0.395,-0.383 -0.57,-0.586 v -108.27 h 20.429 v 121.231 h -0.269 c -0.2,-0.176 -0.383,-0.274 -0.586,-0.274"
         style="fill:#26275d;fill-opacity:1;fill-rule:evenodd;stroke:none"
         transform="matrix(0.13333333,0,0,-0.13333333,0,123.25333)" />
      <path
         id="path6"
         d="M 173.379,609.66 V 492.164 h 20.461 v 103.102 c -4.027,3.457 -7.973,6.515 -11.82,9.218 -2.879,1.914 -5.758,3.645 -8.641,5.176"
         style="fill:#26275d;fill-opacity:1;fill-rule:evenodd;stroke:none"
         transform="matrix(0.13333333,0,0,-0.13333333,0,123.25333)" />
      <path
         id="path7"
         d="m 223.484,561.559 v -69.121 h 20.454 v 38.023 c -4.231,7.113 -8.555,13.934 -12.961,20.449 -2.493,3.645 -4.993,7.199 -7.493,10.649"
         style="fill:#26275d;fill-opacity:1;fill-rule:evenodd;stroke:none"
         transform="matrix(0.13333333,0,0,-0.13333333,0,123.25333)" />
      <path
         id="path8"
         d="m 419.91,564.434 v -72.27 h 31.086 v 121.524 c -2.668,-4.028 -5.547,-8.258 -8.641,-12.668 -7.484,-11.317 -14.953,-23.508 -22.445,-36.586"
         style="fill:#26275d;fill-opacity:1;fill-rule:evenodd;stroke:none"
         transform="matrix(0.13333333,0,0,-0.13333333,0,123.25333)" />
      <path
         id="path9"
         d="m 515.52,679.926 c -6.157,-3.821 -12.473,-8.547 -19.004,-14.106 V 492.164 h 31.089 v 193.813 c -0.757,-0.387 -1.636,-0.762 -2.578,-1.149 -2.886,-1.348 -6.05,-2.969 -9.507,-4.902"
         style="fill:#26275d;fill-opacity:1;fill-rule:evenodd;stroke:none"
         transform="matrix(0.13333333,0,0,-0.13333333,0,123.25333)" />
      <path
         id="path10"
         d="M 573.391,679.926 V 492.164 H 604.52 V 656.32 c -5.957,5.758 -11.915,10.731 -17.872,14.969 -4.402,3.457 -8.843,6.344 -13.257,8.637"
         style="fill:#26275d;fill-opacity:1;fill-rule:evenodd;stroke:none"
         transform="matrix(0.13333333,0,0,-0.13333333,0,123.25333)" />
      <path
         id="path11"
         d="M 650.012,603.902 V 492.438 h 31.093 v 64.238 c -6.703,11.312 -13.617,22.156 -20.722,32.535 -3.469,5.187 -6.899,10.078 -10.371,14.691"
         style="fill:#26275d;fill-opacity:1;fill-rule:evenodd;stroke:none"
         transform="matrix(0.13333333,0,0,-0.13333333,0,123.25333)" />
      <path
         id="path12"
         d="M 950.668,623.199 V 492.164 h 51.002 v 198.715 c -15.182,-17.859 -30.553,-38.024 -46.1,-60.477 -1.523,-2.316 -3.164,-4.699 -4.902,-7.203"
         style="fill:#26275d;fill-opacity:1;fill-rule:evenodd;stroke:none"
         transform="matrix(0.13333333,0,0,-0.13333333,0,123.25333)" />
      <path
         id="path13"
         d="m 1092.66,773.527 c -5.76,-3.648 -11.25,-7.379 -16.42,-11.226 V 492.164 h 50.99 V 789.66 c -4.82,-1.531 -9.71,-3.469 -14.69,-5.762 -7.11,-3.085 -13.73,-6.527 -19.88,-10.371"
         style="fill:#26275d;fill-opacity:1;fill-rule:evenodd;stroke:none"
         transform="matrix(0.13333333,0,0,-0.13333333,0,123.25333)" />
      <path
         id="path14"
         d="m 1209.58,782.461 c -1.33,0.383 -2.68,0.852 -4.03,1.437 -1.35,0.762 -2.67,1.352 -4.02,1.727 V 492.438 h 50.97 v 265.25 c -0.21,0.199 -0.39,0.292 -0.58,0.292 -14.98,10.754 -29.08,18.918 -42.34,24.481"
         style="fill:#26275d;fill-opacity:1;fill-rule:evenodd;stroke:none"
         transform="matrix(0.13333333,0,0,-0.13333333,0,123.25333)" />
      <path
         id="path15"
         d="M 1326.8,687.125 V 492.164 h 50.98 v 127.574 c -15.18,22.278 -30.35,42.524 -45.51,60.774 -1.74,2.297 -3.55,4.5 -5.47,6.613"
         style="fill:#26275d;fill-opacity:1;fill-rule:evenodd;stroke:none"
         transform="matrix(0.13333333,0,0,-0.13333333,0,123.25333)" />
      <path
         id="path16"
         d="m 1751.59,219.719 c -33.79,93.894 -67.97,173.476 -102.52,238.742 -34.57,65.269 -53.21,99.355 -55.88,102.238 -19.79,34.567 -42.13,70.09 -67.09,106.563 -24.98,36.468 -53.4,72.379 -85.26,107.703 -31.67,35.711 -68.92,67.976 -111.73,96.773 -21.7,14.196 -45.22,26 -70.57,35.41 -25.72,9.61 -52.7,15.274 -80.92,17.008 l -11.5,0.278 h -5.78 l -4.05,-0.278 -8.04,-0.289 h -1.16 c -0.21,0 -0.97,-0.086 -2.32,-0.293 h -0.84 l -2.6,-0.293 -5.47,-0.562 c -14.39,-1.938 -28.24,-4.992 -41.48,-9.223 -13.05,-4.41 -25.33,-9.695 -36.86,-15.844 -11.52,-5.757 -22.36,-12.199 -32.53,-19.3 -20.16,-14.02 -38.111,-28.895 -53.873,-44.637 -16.113,-15.551 -30.625,-31.301 -43.488,-47.231 -25.91,-32.066 -47.988,-63.066 -66.234,-93.015 -18.426,-29.766 -34.059,-57.125 -46.93,-82.082 -10.18,-19.395 -18.82,-36.754 -25.918,-52.129 -6.145,10.558 -13.059,21.89 -20.754,33.98 -9.785,15.184 -21.008,31.297 -33.684,48.387 -12.476,16.906 -26.699,33.887 -42.632,50.969 -15.918,17.277 -34.739,33.406 -56.45,48.398 -10.742,7.289 -22.656,13.637 -35.711,19.008 -3.437,1.328 -6.816,2.582 -10.078,3.734 -3.437,0.973 -6.992,1.914 -10.644,2.883 -7.11,1.735 -14.395,2.879 -21.883,3.461 l -5.766,0.274 h -9.507 l -2.012,-0.274 -5.473,-0.582 c -7.691,-0.762 -15.066,-2.293 -22.176,-4.609 -6.906,-2.305 -13.547,-5 -19.875,-8.059 -6.343,-3.258 -12.285,-6.73 -17.871,-10.375 -22.066,-15.543 -40.308,-32.644 -54.715,-51.254 -14.582,-18.445 -27.265,-36.578 -38,-54.445 -10.562,-18.051 -19.878,-35.125 -27.949,-51.258 -11.304,-23.422 -20.445,-43.781 -27.344,-61.058 -4.8,8.257 -10.171,17.39 -16.14,27.359 -6.707,10.75 -14.403,21.976 -23.035,33.699 -8.645,11.906 -18.633,23.723 -29.953,35.422 -11.133,11.895 -24.383,22.762 -39.739,32.555 -7.488,4.789 -15.742,8.929 -24.761,12.375 -9.231,3.257 -18.809,5.289 -28.801,6.05 -4.817,0.383 -9.903,0.293 -15.281,-0.293 h -1.704 l -1.445,-0.292 -1.734,-0.27 h -0.871 c -0.567,-0.203 -0.86,-0.297 -0.86,-0.297 h -0.304 l -7.481,-1.726 c -1.148,-0.204 -2.305,-0.586 -3.434,-1.153 l -3.769,-1.144 -3.441,-1.172 c -1.141,-0.567 -2.207,-1.059 -3.165,-1.442 -2.3,-1.144 -4.531,-2.199 -6.621,-3.148 l -6.05,-3.461 c -7.8754,-5.18 -14.8949,-10.758 -21.0356,-16.695 -6.3281,-5.762 -12.082,-11.817 -17.289,-18.16 -9.9571,-12.872 -18.6016,-25.536 -25.9141,-38 C 35.9063,576.156 29.6758,564.258 24.4805,552.914 14.1328,530.254 6.63281,511.945 2.01953,497.926 1.26172,495.813 0.578125,493.996 0,492.438 h 27.0898 c 4.9688,12.683 12.461,28.707 22.4493,48.105 5.5586,10.367 11.9922,21.211 19.3086,32.535 7.0781,11.137 15.3437,21.977 24.7539,32.551 4.6015,5.184 9.6014,10.086 14.9844,14.695 5.176,4.414 10.66,8.262 16.426,11.516 l 4.312,2.301 c 1.328,0.586 2.766,1.144 4.321,1.73 0.757,0.379 1.519,0.684 2.293,0.859 l 2.031,0.579 2.297,0.859 c 0.757,0.203 1.433,0.293 2.019,0.293 1.524,0.383 3.059,0.672 4.59,0.852 h 0.586 l 1.727,0.296 h 1.449 l 0.562,0.289 h 0.578 c 2.688,0 5.559,-0.199 8.645,-0.585 12.476,-1.711 24.391,-6.614 35.699,-14.668 11.137,-7.875 21.313,-17.192 30.527,-27.946 9.243,-10.371 17.485,-21.129 24.778,-32.265 7.297,-10.934 13.719,-21.481 19.289,-31.676 8.64,-15.547 15.562,-28.985 20.738,-40.32 h 64.809 c 0.379,0.585 0.758,1.257 1.133,2.027 7.886,18.808 19.988,43.484 36.304,74.015 8.254,14.793 17.656,30.243 28.215,46.356 10.754,16.336 22.852,32.059 36.289,47.242 13.445,15.555 28.32,28.512 44.641,38.883 4.019,2.496 8.164,4.59 12.398,6.324 4.028,1.938 8.149,3.375 12.363,4.32 3.848,1.149 7.676,1.817 11.528,2.024 h 1.734 l 2.004,0.293 h 3.469 l 2.293,-0.293 3.176,-0.293 c 16.511,-2.496 32.925,-9.789 49.246,-21.891 15.925,-11.906 30.539,-25.718 43.781,-41.468 13.238,-15.364 25.137,-31 35.699,-46.938 10.766,-15.742 20.344,-31.027 28.813,-45.801 14.773,-25.722 26.211,-47.32 34.257,-64.8 h 102.247 c 2.871,5.375 6.05,11.425 9.492,18.152 8.64,16.902 19.597,36.863 32.847,59.898 13.442,22.864 29.282,47.61 47.516,74.317 18.223,26.683 39.258,53.371 63.066,80.054 11.897,13.25 24.667,25.922 38.307,38.024 6.71,5.762 13.63,11.406 20.74,16.984 7.11,5.176 14.39,10.078 21.89,14.696 7.29,4.589 14.79,8.636 22.44,12.082 7.5,3.464 15,6.14 22.46,8.074 7.5,2.094 14.91,3.351 22.19,3.738 l 2.87,0.289 h 13.56 l 2.28,-0.289 c 1.74,-0.211 3.48,-0.293 5.18,-0.293 l 0.58,-0.293 h 0.59 l 1.72,-0.273 2.87,-0.293 c 2.13,-0.2 4.14,-0.492 6.05,-0.875 4.03,-0.942 8.09,-1.907 12.11,-2.875 l 6.06,-1.719 6.03,-2.02 c 4.05,-1.355 8.07,-2.882 12.09,-4.613 16.14,-6.906 31.88,-15.93 47.25,-27.066 30.9,-22.657 59.32,-49.922 85.23,-81.789 25.73,-31.493 49.05,-64.235 69.98,-98.203 4.24,-6.731 8.27,-13.434 12.11,-20.165 9.61,-14.984 31.1,-55.777 64.5,-122.398 33.41,-66.617 65.68,-145.23 96.77,-235.863 h 156.96"
         style="fill:#26275d;fill-opacity:1;fill-rule:evenodd;stroke:none"
         transform="matrix(0.13333333,0,0,-0.13333333,0,123.25333)" />
      <path
         id="path17"
         d="m 1546.25,681.074 c 22.47,-32.246 44.36,-66.715 65.67,-103.383 0.19,-0.566 0.47,-1.058 0.84,-1.441 l 1.74,-2.879 c 5,-6.523 25.06,-43.379 60.19,-110.594 35.14,-66.996 69.49,-148.019 103.11,-243.058 h 131.35 c -35.16,94.453 -71.92,175.672 -110.34,243.644 -38.2,67.774 -58.94,103.184 -62.2,106.266 v 0.293 c -19.38,31.68 -41.1,64.125 -65.06,97.34 -26.31,36.468 -56.27,72.379 -89.88,107.703 -33.21,35.711 -72.47,67.976 -117.78,96.773 -22.65,14.196 -47.42,26 -74.31,35.41 -26.88,9.61 -55.2,15.274 -84.97,17.008 l -12.09,0.278 h -6.05 l -4.02,-0.278 c 19.57,-8.07 39.57,-18.629 59.9,-31.676 39.37,-25.355 78.24,-58.949 116.64,-100.8 29.18,-31.879 58.28,-68.731 87.26,-110.606"
         style="fill:#346cbe;fill-opacity:1;fill-rule:evenodd;stroke:none"
         transform="matrix(0.13333333,0,0,-0.13333333,0,123.25333)" />
      <path
         id="path18"
         d="m 37.4063,45.1289 c -7.625,4.4805 -13.6133,10.7891 -17.9532,18.8945 -4.3476,8.125 -6.5117,17.2657 -6.5117,27.4219 0,10.1567 2.1641,19.2697 6.5117,27.3247 4.3399,8.046 10.3282,14.316 17.9532,18.8 7.6328,4.481 16.2851,6.727 25.957,6.727 8.4336,0 15.9726,-1.746 22.6094,-5.242 6.6328,-3.508 11.8789,-8.614 15.7223,-15.344 l -9.8591,-7.129 c -3.2265,5.156 -7.3242,9.004 -12.2851,11.582 -4.961,2.578 -10.3555,3.867 -16.1875,3.867 -7.0703,0 -13.4258,-1.687 -19.0703,-5.058 -5.6446,-3.36 -10.0508,-8.145 -13.2149,-14.344 -3.1601,-6.203 -4.7383,-13.2618 -4.7383,-21.1837 0,-8.0469 1.5782,-15.1367 4.7383,-21.2812 3.1641,-6.1407 7.5703,-10.8868 13.2149,-14.2461 5.6445,-3.3672 12,-5.0586 19.0703,-5.0586 5.832,0 11.2265,1.2617 16.1875,3.7695 4.9609,2.5 9.0586,6.3281 12.2851,11.4844 l 9.8591,-7.1289 C 97.8516,52.2461 92.5781,47.1289 85.8789,43.6445 79.1797,40.1367 71.6758,38.3984 63.3633,38.3984 c -9.6719,0 -18.3242,2.2461 -25.957,6.7305"
         style="fill:#26275d;fill-opacity:1;fill-rule:nonzero;stroke:none"
         transform="matrix(0.13333333,0,0,-0.13333333,0,123.25333)" />
      <path
         id="path19"
         d="m 184.594,55.918 c 5.519,3.3593 9.832,8.1445 12.929,14.3476 3.102,6.1992 4.657,13.2617 4.657,21.1797 0,7.9219 -1.555,14.9807 -4.657,21.1837 -3.097,6.199 -7.41,10.984 -12.929,14.344 -5.524,3.371 -11.758,5.058 -18.699,5.058 -6.95,0 -13.184,-1.687 -18.704,-5.058 -5.519,-3.36 -9.863,-8.145 -13.027,-14.344 -3.156,-6.203 -4.738,-13.2618 -4.738,-21.1837 0,-7.918 1.582,-14.9805 4.738,-21.1797 3.164,-6.2031 7.508,-10.9883 13.027,-14.3476 5.52,-3.3672 11.754,-5.0586 18.704,-5.0586 6.941,0 13.175,1.6914 18.699,5.0586 z M 140.398,45.2266 c -7.566,4.5507 -13.519,10.8476 -17.859,18.9062 -4.348,8.0469 -6.516,17.1563 -6.516,27.3125 0,10.1567 2.168,19.2697 6.516,27.3247 4.34,8.046 10.293,14.316 17.859,18.8 7.567,4.481 16.067,6.727 25.497,6.727 9.421,0 17.921,-2.246 25.492,-6.727 7.562,-4.484 13.484,-10.754 17.769,-18.8 4.278,-8.055 6.418,-17.168 6.418,-27.3247 0,-10.1562 -2.14,-19.2656 -6.418,-27.3125 -4.285,-8.0586 -10.207,-14.3555 -17.769,-18.9062 -7.571,-4.5508 -16.071,-6.8282 -25.492,-6.8282 -9.43,0 -17.93,2.2774 -25.497,6.8282"
         style="fill:#26275d;fill-opacity:1;fill-rule:nonzero;stroke:none"
         transform="matrix(0.13333333,0,0,-0.13333333,0,123.25333)" />
      <path
         id="path20"
         d="m 321.723,132.91 c 7.261,-7.578 10.89,-18.633 10.89,-33.1444 V 39.3867 h -13.215 v 58.9922 c 0,10.8201 -2.543,19.0621 -7.625,24.7381 -5.089,5.672 -12.347,8.516 -21.773,8.516 -10.547,0 -18.887,-3.332 -25.023,-10 -6.145,-6.672 -9.215,-15.871 -9.215,-27.6096 V 39.3867 H 242.555 V 143.508 h 12.648 v -19.199 c 3.602,6.336 8.59,11.238 14.985,14.746 6.382,3.496 13.796,5.242 22.234,5.242 12.281,0 22.047,-3.789 29.301,-11.387"
         style="fill:#26275d;fill-opacity:1;fill-rule:nonzero;stroke:none"
         transform="matrix(0.13333333,0,0,-0.13333333,0,123.25333)" />
      <path
         id="path21"
         d="m 371.965,42.0508 c -7.262,2.4414 -12.938,5.5078 -17.027,9.2109 l 5.953,11.0821 c 4.093,-3.4297 9.242,-6.2305 15.441,-8.4063 6.203,-2.1797 12.652,-3.2734 19.352,-3.2734 8.933,0 15.539,1.4843 19.82,4.4531 4.277,2.9687 6.422,7.168 6.422,12.5781 0,3.8281 -1.184,6.8281 -3.535,9.0039 -2.36,2.1797 -5.34,3.8281 -8.938,4.9414 -3.598,1.1328 -8.375,2.2188 -14.324,3.2735 -7.941,1.5898 -14.328,3.1914 -19.168,4.8515 -4.84,1.6407 -8.965,4.4532 -12.371,8.4102 -3.414,3.9532 -5.117,9.4332 -5.117,16.4332 0,8.711 3.406,15.832 10.234,21.379 6.82,5.535 16.309,8.309 28.465,8.309 6.328,0 12.656,-0.887 18.98,-2.676 6.328,-1.777 11.539,-4.121 15.629,-7.019 l -5.765,-11.282 c -8.067,5.938 -17.676,8.907 -28.844,8.907 -8.438,0 -14.789,-1.582 -19.07,-4.754 -4.278,-3.164 -6.422,-7.325 -6.422,-12.473 0,-3.965 1.211,-7.129 3.633,-9.504 2.417,-2.371 5.425,-4.129 9.023,-5.242 3.594,-1.1212 8.559,-2.2735 14.883,-3.4571 7.816,-1.5938 14.078,-3.1758 18.793,-4.7578 4.715,-1.5899 8.746,-4.2852 12.093,-8.1133 3.352,-3.8281 5.028,-9.1016 5.028,-15.8399 0,-9.1015 -3.567,-16.3281 -10.699,-21.6796 -7.133,-5.3321 -17.028,-8.0079 -29.676,-8.0079 -7.942,0 -15.539,1.211 -22.793,3.6524"
         style="fill:#26275d;fill-opacity:1;fill-rule:nonzero;stroke:none"
         transform="matrix(0.13333333,0,0,-0.13333333,0,123.25333)" />
      <path
         id="path22"
         d="M 547.711,143.508 V 39.3867 h -12.656 v 19.0039 c -3.473,-6.3398 -8.246,-11.2617 -14.328,-14.7461 -6.079,-3.5078 -13.024,-5.2461 -20.84,-5.2461 -12.778,0 -22.856,3.7891 -30.235,11.3789 -7.382,7.586 -11.074,18.6993 -11.074,33.3477 v 60.383 h 13.215 V 84.5117 c 0,-10.957 2.539,-19.2578 7.625,-24.9414 5.09,-5.664 12.344,-8.5039 21.773,-8.5039 10.293,0 18.418,3.3281 24.375,9.9883 5.954,6.6719 8.93,15.9375 8.93,27.8125 v 54.6408 h 13.215"
         style="fill:#26275d;fill-opacity:1;fill-rule:nonzero;stroke:none"
         transform="matrix(0.13333333,0,0,-0.13333333,0,123.25333)" />
      <path
         id="path23"
         d="m 584.734,186.27 h 13.211 V 39.3867 H 584.734 V 186.27"
         style="fill:#26275d;fill-opacity:1;fill-rule:nonzero;stroke:none"
         transform="matrix(0.13333333,0,0,-0.13333333,0,123.25333)" />
      <path
         id="path24"
         d="m 686.699,45.7227 c -2.48,-2.3829 -5.551,-4.1993 -9.211,-5.4493 -3.66,-1.25 -7.472,-1.875 -11.437,-1.875 -9.188,0 -16.254,2.6368 -21.215,7.9102 -4.965,5.2852 -7.441,12.7344 -7.441,22.375 v 62.9494 h -17.493 v 11.875 h 17.493 v 22.762 h 13.21 v -22.762 h 29.77 v -11.875 h -29.77 V 69.4727 c 0,-6.211 1.458,-10.918 4.372,-14.1602 2.914,-3.2227 7.097,-4.8437 12.558,-4.8437 2.731,0 5.363,0.4687 7.91,1.3867 2.539,0.9179 4.746,2.2461 6.606,3.9648 l 4.648,-10.0976"
         style="fill:#26275d;fill-opacity:1;fill-rule:nonzero;stroke:none"
         transform="matrix(0.13333333,0,0,-0.13333333,0,123.25333)" />
      <path
         id="path25"
         d="M 710.703,143.508 H 723.91 V 39.3867 h -13.207 z m -0.183,25.73 c -1.868,1.985 -2.793,4.356 -2.793,7.129 0,2.637 0.925,4.942 2.793,6.934 1.859,1.972 4.148,2.969 6.882,2.969 2.727,0 5.02,-0.965 6.883,-2.872 1.863,-1.914 2.789,-4.199 2.789,-6.835 0,-2.911 -0.926,-5.34 -2.789,-7.325 -1.863,-1.972 -4.156,-2.968 -6.883,-2.968 -2.734,0 -5.023,0.996 -6.882,2.968"
         style="fill:#26275d;fill-opacity:1;fill-rule:nonzero;stroke:none"
         transform="matrix(0.13333333,0,0,-0.13333333,0,123.25333)" />
      <path
         id="path26"
         d="m 839.926,132.91 c 7.262,-7.578 10.89,-18.633 10.89,-33.1444 V 39.3867 h -13.214 v 58.9922 c 0,10.8201 -2.543,19.0621 -7.625,24.7381 -5.09,5.672 -12.348,8.516 -21.774,8.516 -10.547,0 -18.887,-3.332 -25.023,-10 -6.145,-6.672 -9.215,-15.871 -9.215,-27.6096 V 39.3867 H 760.758 V 143.508 h 12.648 v -19.199 c 3.602,6.336 8.59,11.238 14.985,14.746 6.382,3.496 13.797,5.242 22.234,5.242 12.281,0 22.047,-3.789 29.301,-11.387"
         style="fill:#26275d;fill-opacity:1;fill-rule:nonzero;stroke:none"
         transform="matrix(0.13333333,0,0,-0.13333333,0,123.25333)" />
      <path
         id="path27"
         d="m 946.82,60.6641 c 5.703,3.2343 10.137,7.7539 13.301,13.5547 3.164,5.8125 4.746,12.4023 4.746,19.8046 0,7.3826 -1.582,13.9456 -4.746,19.6876 -3.164,5.742 -7.558,10.234 -13.203,13.469 -5.645,3.23 -12.07,4.851 -19.262,4.851 -7.07,0 -13.426,-1.59 -19.07,-4.754 -5.648,-3.175 -10.051,-7.656 -13.215,-13.468 -3.16,-5.801 -4.742,-12.403 -4.742,-19.7856 0,-7.4023 1.582,-13.9921 4.742,-19.8046 3.164,-5.8008 7.567,-10.3204 13.215,-13.5547 5.644,-3.2422 12,-4.8438 19.07,-4.8438 7.074,0 13.461,1.6016 19.164,4.8438 z m 30.891,82.8439 V 52.0508 c 0,-17.6758 -4.063,-30.7813 -12.188,-39.2969 C 957.398,4.24609 945.141,0 928.773,0 919.719,0 911.121,1.40625 903.004,4.24609 894.879,7.08984 888.27,11.0156 883.184,16.0273 l 6.699,10.6915 c 4.711,-4.4922 10.449,-7.9883 17.211,-10.4883 6.761,-2.5078 13.863,-3.7696 21.308,-3.7696 12.403,0 21.524,3.0664 27.344,9.211 5.84,6.1328 8.75,15.6719 8.75,28.6015 v 13.2618 c -4.09,-6.6016 -9.453,-11.6211 -16.094,-15.0391 -6.64,-3.4375 -13.984,-5.1563 -22.05,-5.1563 -9.18,0 -17.52,2.1485 -25.024,6.4375 -7.512,4.2852 -13.398,10.293 -17.676,18.0157 -4.281,7.7148 -6.422,16.4648 -6.422,26.2304 0,9.7656 2.141,18.4766 6.422,26.1246 4.278,7.645 10.141,13.594 17.582,17.821 7.442,4.219 15.817,6.328 25.118,6.328 8.312,0 15.82,-1.777 22.519,-5.344 6.699,-3.562 12.09,-8.707 16.192,-15.437 v 19.992 h 12.648"
         style="fill:#26275d;fill-opacity:1;fill-rule:nonzero;stroke:none"
         transform="matrix(0.13333333,0,0,-0.13333333,0,123.25333)" />
      <path
         id="path28"
         d="M 236.133,444.395 V 217.734 H 182.742 L 81.5742,338.508 V 217.734 H 18.0273 V 444.395 H 71.4141 L 172.605,323.594 v 120.801 h 63.528"
         style="fill:#26275d;fill-opacity:1;fill-rule:nonzero;stroke:none"
         transform="matrix(0.13333333,0,0,-0.13333333,0,123.25333)" />
      <path
         id="path29"
         d="m 436.555,274.395 c 9.375,5.402 16.797,13 22.254,22.812 5.461,9.832 8.195,21.106 8.195,33.848 0,12.746 -2.734,24.023 -8.195,33.847 -5.457,9.805 -12.879,17.422 -22.254,22.813 -9.399,5.39 -19.875,8.098 -31.45,8.098 -11.57,0 -22.058,-2.708 -31.421,-8.098 -9.414,-5.391 -16.836,-13.008 -22.278,-22.813 -5.461,-9.824 -8.191,-21.101 -8.191,-33.847 0,-12.742 2.73,-24.016 8.191,-33.848 5.442,-9.812 12.864,-17.41 22.278,-22.812 9.363,-5.399 19.851,-8.106 31.421,-8.106 11.575,0 22.051,2.707 31.45,8.106 z m -96.782,-45.977 c -19.312,10.156 -34.492,24.191 -45.527,42.09 -11.023,17.91 -16.519,38.086 -16.519,60.547 0,22.441 5.496,42.636 16.519,60.558 11.035,17.918 26.215,31.942 45.527,42.09 19.321,10.145 41.118,15.223 65.332,15.223 24.243,0 46.016,-5.078 65.333,-15.223 19.328,-10.148 34.496,-24.172 45.531,-42.09 11.004,-17.922 16.519,-38.117 16.519,-60.558 0,-22.461 -5.515,-42.637 -16.519,-60.547 -11.035,-17.899 -26.203,-31.934 -45.531,-42.09 -19.317,-10.145 -41.09,-15.234 -65.333,-15.234 -24.214,0 -46.011,5.089 -65.332,15.234"
         style="fill:#26275d;fill-opacity:1;fill-rule:nonzero;stroke:none"
         transform="matrix(0.13333333,0,0,-0.13333333,0,123.25333)" />
      <path
         id="path30"
         d="m 705.078,385.137 c -6.765,5.82 -16.808,8.73 -30.129,8.73 H 638.918 V 327.5 h 36.031 c 13.321,0 23.364,2.852 30.129,8.574 6.746,5.723 10.149,13.867 10.149,24.453 0,10.567 -3.403,18.789 -10.149,24.61 z M 674.285,277.949 h -35.367 v -60.215 h -64.836 v 226.661 h 104.797 c 20.738,0 38.758,-3.399 54.043,-10.204 15.269,-6.808 27.051,-16.515 35.359,-29.152 8.289,-12.617 12.449,-27.461 12.449,-44.512 0,-16.406 -3.882,-30.722 -11.628,-42.91 -7.747,-12.207 -18.836,-21.758 -33.25,-28.664 l 49.453,-71.219 h -69.414 l -41.606,60.215"
         style="fill:#26275d;fill-opacity:1;fill-rule:nonzero;stroke:none"
         transform="matrix(0.13333333,0,0,-0.13333333,0,123.25333)" />
      <path
         id="path31"
         d="m 869.465,393.535 h -70.41 v 50.86 h 205.325 v -50.86 H 934.301 V 217.734 h -64.836 v 175.801"
         style="fill:#26275d;fill-opacity:1;fill-rule:nonzero;stroke:none"
         transform="matrix(0.13333333,0,0,-0.13333333,0,123.25333)" />
      <path
         id="path32"
         d="m 1159.28,309.043 -29.47,72.52 -29.47,-72.52 z m 18.99,-47.273 h -96.94 l -18,-44.036 h -66.139 l 101.169,226.661 h 63.85 l 101.53,-226.661 h -67.47 l -18,44.036"
         style="fill:#26275d;fill-opacity:1;fill-rule:nonzero;stroke:none"
         transform="matrix(0.13333333,0,0,-0.13333333,0,123.25333)" />
      <path
         id="path33"
         d="m 1289.59,444.395 h 64.85 V 268.566 h 109.37 v -50.832 h -174.22 v 226.661"
         style="fill:#26275d;fill-opacity:1;fill-rule:nonzero;stroke:none"
         transform="matrix(0.13333333,0,0,-0.13333333,0,123.25333)" />
    </g>
  </g>
</g>
</svg>
